HIERARCHY
ROOT Hips
{
  OFFSET 43.0842 91.1655 101.099
  CHANNELS 6 Xposition Yposition Zposition Zrotation Xrotation Yrotation
  JOINT LeftUpLeg
  {
    OFFSET 8.64259 1.95398 -2.38835
    CHANNELS 3 Zrotation Xrotation Yrotation
    JOINT LeftLeg
    {
      OFFSET 43.7702 0 0
      CHANNELS 3 Zrotation Xrotation Yrotation
      JOINT LeftFoot
      {
        OFFSET 40.6238 0 0
        CHANNELS 3 Zrotation Xrotation Yrotation
        JOINT LeftToeBase
        {
          OFFSET 12.7242 0 0
          CHANNELS 3 Zrotation Xrotation Yrotation
          End Site
          {
            OFFSET 0 0 0
          }
        }
      }
    }
  }
  JOINT RightUpLeg
  {
    OFFSET -8.2249 1.95398 -2.59336
    CHANNELS 3 Zrotation Xrotation Yrotation
    JOINT RightLeg
    {
      OFFSET 43.5653 0 0
      CHANNELS 3 Zrotation Xrotation Yrotation
      JOINT RightFoot
      {
        OFFSET 40.6238 0 0
        CHANNELS 3 Zrotation Xrotation Yrotation
        JOINT RightToeBase
        {
          OFFSET 12.7242 0 0
          CHANNELS 3 Zrotation Xrotation Yrotation
          End Site
          {
            OFFSET 0 0 0
          }
        }
      }
    }
  }
  JOINT Spine
  {
    OFFSET 0.165834 0.87714 6.61349
    CHANNELS 3 Zrotation Xrotation Yrotation
    JOINT Spine1
    {
      OFFSET 7.38963 1.71661e-005 0
      CHANNELS 3 Zrotation Xrotation Yrotation
      JOINT Spine2
      {
        OFFSET 11.9445 1.14441e-005 0
        CHANNELS 3 Zrotation Xrotation Yrotation
        JOINT Spine3
        {
          OFFSET 14.7254 4.19617e-005 0
          CHANNELS 3 Zrotation Xrotation Yrotation
          JOINT Spine4
          {
            OFFSET 10.9679 0 0
            CHANNELS 3 Zrotation Xrotation Yrotation
            JOINT RightShoulder
            {
              OFFSET 2.46616 -1.6653 3.69651
              CHANNELS 3 Zrotation Xrotation Yrotation
              JOINT RightArm
              {
                OFFSET 13.0012 0 0
                CHANNELS 3 Zrotation Xrotation Yrotation
                JOINT RightForeArm
                {
                  OFFSET 28.7848 1.52588e-005 0
                  CHANNELS 3 Zrotation Xrotation Yrotation
                  JOINT RightHand
                  {
                    OFFSET 26.5688 1.52588e-005 0
                    CHANNELS 3 Zrotation Xrotation Yrotation
                    End Site
                    {
                      OFFSET 0 0 0
                    }
                  }
                }
              }
            }
            JOINT LeftShoulder
            {
              OFFSET 2.38034 -1.29275 -3.7523
              CHANNELS 3 Zrotation Xrotation Yrotation
              JOINT LeftArm
              {
                OFFSET 16.3182 6.10351e-005 0
                CHANNELS 3 Zrotation Xrotation Yrotation
                JOINT LeftForeArm
                {
                  OFFSET 27.0901 0 0
                  CHANNELS 3 Zrotation Xrotation Yrotation
                  JOINT LeftHand
                  {
                    OFFSET 24.5451 1.52588e-005 0
                    CHANNELS 3 Zrotation Xrotation Yrotation
                    End Site
                    {
                      OFFSET 0 0 0
                    }
                  }
                }
              }
            }
            JOINT Neck
            {
              OFFSET 5.0226 -0.0266342 0
              CHANNELS 3 Zrotation Xrotation Yrotation
              JOINT Head
              {
                OFFSET 6.69364 2.86102e-005 0
                CHANNELS 3 Zrotation Xrotation Yrotation
                End Site
                {
                  OFFSET 0 0 0
                }
              }
            }
          }
        }
      }
    }
  }
}
MOTION
Frames:	6
Frame Time:	0.0333333
19.3791 86.6935 -17.3213 94.8091 21.9453 124.316 176.63 39.3273 130.181 -67.5817 24.5585 2.6514 76.6526 7.22855 21.8899 29.8975 -1.78879 5.10277 142.149 23.0725 98.0052 -67.0249 -31.9685 5.95925 99.2071 -35.2986 -22.4642 -75.5037 0.384638 48.8254 -0.7565 7.37259 -88.8389 12.1338 -0.954631 2.4223 0.460832 -0.84716 2.46194 -22.0635 -1.63836 2.02366 -2.05083 -1.63836 2.02365 97.8698 -48.3716 -88.8126 -2.39095 2.65765 12.1751 17.3214 24.4695 -70.6584 -29.3945 -8.36606 11.6914 -105.663 -58.568 59.454 5.98584 29.4769 -39.2081 5.79689 4.34452 -73.3017 31.2304 3.80948 -2.42859 -22.4675 -4.99165 -20.9193 0.958712 -6.84612 -10.6767 
18.5781 86.8686 -18.9739 96.08 20.5259 120.064 -179.39 36.7975 124.114 -65.3983 23.241 0.67137 76.1605 7.29484 22.4404 30.1051 -1.24522 4.72841 149.959 13.1808 100.762 -51.723 -30.7812 8.2201 96.4324 -35.7809 -19.2068 -23.1975 1.14511 30.7024 -0.620946 7.45416 -88.7811 11.9663 -0.659939 2.50266 0.293101 -0.549181 2.52926 -22.2278 -1.38138 2.18887 -2.21518 -1.38142 2.18887 97.4813 -47.3664 -89.5269 -3.7963 5.38135 9.00534 13.998 19.6325 -72.2776 -24.7002 -6.35093 9.39713 -104.668 -58.3102 60.6618 5.8626 28.2784 -38.6797 6.81215 2.94476 -75.7287 28.5963 3.56564 -1.08779 -22.9323 -5.49826 -18.8655 1.72817 -7.36104 -10.4382 
17.6424 87.4777 -20.4136 96.2581 19.3451 115.182 -176.25 34.1092 117.182 -61.6857 21.6194 -1.44169 75.0318 6.7932 22.3381 30.0296 -1.07219 4.30258 157.131 6.1175 101.667 -38.0156 -30.9052 8.05883 93.8166 -33.7278 -14.4308 -5.11149 12.9581 11.7678 -0.504264 7.47964 -88.7065 11.912 -0.393411 2.62217 0.238423 -0.277639 2.63692 -22.279 -1.16306 2.38296 -2.26632 -1.16305 2.38296 96.9535 -46.3749 -90.4836 -5.0089 9.36797 6.20262 8.5664 14.41 -74.1008 -19.489 -4.33063 5.36376 -104.438 -58.2757 60.9522 6.63481 27.2819 -39.1579 7.78253 1.51114 -78.378 26.7253 3.30461 -1.61841 -23.111 -6.40749 -15.6687 2.69055 -8.18696 -10.6869 
16.5485 88.1769 -21.5465 95.3833 18.0141 109.792 -174.011 32.1847 110.601 -57.6442 20.6203 -4.23281 73.4529 5.39882 21.1886 30.1437 -0.233928 3.24514 163.77 0.751491 101.184 -25.2759 -32.3665 5.72147 89.379 -28.0113 -9.67882 -0.0101563 19.8757 -2.06081 -0.311221 7.4201 -88.5914 12.0249 0.0460849 2.80462 0.350962 0.169445 2.79988 -22.1613 -0.798637 2.68899 -2.14863 -0.798607 2.68901 97.1555 -45.5454 -90.2435 -5.01702 14.1464 2.5778 -0.269517 8.92838 -74.9139 -15.1543 -2.93277 3.37292 -104.228 -58.1134 61.1688 7.65629 25.9427 -40.7527 10.0022 0.754288 -81.2829 22.0001 2.67389 -0.197235 -23.4124 -7.86381 -12.449 3.74927 -9.64181 -11.7366 
15.6941 89.3164 -22.3544 94.8842 17.5847 104.595 -171.661 29.5419 105.298 -52.9391 19.7606 -6.49261 71.0544 3.84975 18.8359 30.6259 2.16863 0.370156 169.709 -6.21474 99.979 -10.6891 -32.1983 2.19549 82.4551 -21.2798 -7.95038 11.5546 20.4487 -15.6843 -0.188459 7.47836 -88.5644 11.9046 0.301318 2.83057 0.23061 0.425539 2.81458 -22.2804 -0.562966 2.79036 -2.26773 -0.562959 2.79037 96.8462 -44.1223 -90.922 -3.14947 20.4034 -0.870029 -5.62667 3.97258 -77.0139 -14.4285 -2.7181 3.1548 -104.546 -58.5914 60.9267 9.65646 24.7673 -42.7201 11.6884 -1.1392 -84.2984 19.4454 2.29777 0.958138 -22.2789 -9.39925 -7.23951 2.81527 -10.801 -14.0029 
14.7218 90.3172 -22.9668 93.8727 18.5767 99.8341 -169.195 28.3382 100.447 -50.1815 19.0987 -7.69829 68.0844 2.87749 9.22173 33.8607 5.02108 2.72852 173.164 -7.47304 96.0972 -5.4751 -41.4123 0.796952 76.702 -14.6164 -17.1879 17.8766 20.0481 -23.4953 -0.186756 7.51993 -88.5183 11.8203 0.325415 2.91985 0.146193 0.453556 2.90272 -22.3632 -0.566782 2.88277 -2.35056 -0.566775 2.88276 96.4447 -43.8325 -91.6285 -0.257649 27.4325 -4.30852 -7.59008 0.208104 -79.4459 -14.322 -2.69394 1.31089 -103.043 -57.8929 62.6576 10.3275 23.0363 -45.418 13.4869 -1.50748 -86.6605 17.4289 1.99645 0.817244 -20.9241 -11.1198 -2.5737 1.28756 -12.173 -16.6509 
